HIERARCHY
ROOT Hips
{
	OFFSET 0.000000 0.000000 0.000000
	CHANNELS 6 Xposition Yposition Zposition Zrotation Yrotation Xrotation 
	JOINT LeftUpLeg_virtual
	{
		OFFSET 0.000000 0.000000 0.000000
		CHANNELS 3 Zrotation Yrotation Xrotation
		JOINT LeftUpLeg
		{
			OFFSET 10.205400 -3.823500 0.155100
			CHANNELS 3 Zrotation Yrotation Xrotation
			JOINT LeftLeg
			{
				OFFSET 0.708757 -12.982077 0.567790
				CHANNELS 3 Zrotation Yrotation Xrotation
				JOINT LeftFoot
				{
					OFFSET -0.708756 -10.717838 -2.184338
					CHANNELS 3 Zrotation Yrotation Xrotation
					JOINT LeftToeBase
					{
						OFFSET 0.108149 -7.191104 7.560241
						CHANNELS 3 Zrotation Yrotation Xrotation
						End Site
						{
							OFFSET 0.000000 0.000000 0.000000
						}
					}
				}
			}
		}
	}
	JOINT RightUpLeg_virtual
	{
		OFFSET 0.000000 0.000000 0.000000
		CHANNELS 3 Zrotation Yrotation Xrotation
		JOINT RightUpLeg
		{
			OFFSET -10.205400 -3.823500 0.005500
			CHANNELS 3 Zrotation Yrotation Xrotation
			JOINT RightLeg
			{
				OFFSET -0.708756 -12.982134 0.610632
				CHANNELS 3 Zrotation Yrotation Xrotation
				JOINT RightFoot
				{
					OFFSET 0.708754 -10.717769 -1.945823
					CHANNELS 3 Zrotation Yrotation Xrotation
					JOINT RightToeBase
					{
						OFFSET -0.108140 -7.191069 7.372968
						CHANNELS 3 Zrotation Yrotation Xrotation
						End Site
						{
							OFFSET 0.000000 0.000000 0.000000
						}
					}
				}
			}
		}
	}
	JOINT Spine_virtual
	{
		OFFSET 0.000000 0.000000 0.000000
		CHANNELS 3 Zrotation Yrotation Xrotation
		JOINT Spine
		{
			OFFSET 0.000000 6.876099 0.125700
			CHANNELS 3 Zrotation Yrotation Xrotation
			JOINT Spine1
			{
				OFFSET 0.000000 8.022060 0.146608
				CHANNELS 3 Zrotation Yrotation Xrotation
				JOINT Spine2
				{
					OFFSET 0.000000 9.168068 0.167552
					CHANNELS 3 Zrotation Yrotation Xrotation
					JOINT Neck_virtual
					{
						OFFSET 0.000000 0.000000 0.000000
						CHANNELS 3 Zrotation Yrotation Xrotation
						JOINT Neck
						{
							OFFSET 0.000000 10.314075 0.188496
							CHANNELS 3 Zrotation Yrotation Xrotation
							JOINT Head
							{
								OFFSET 0.000000 7.643700 -2.377400
								CHANNELS 3 Zrotation Yrotation Xrotation
								End Site
								{
									OFFSET 0.000000 0.000000 0.000000
								}
							}
						}
					}
					JOINT LeftShoulder_virtual
					{
						OFFSET 0.000000 0.000000 0.000000
						CHANNELS 3 Zrotation Yrotation Xrotation
						JOINT LeftShoulder
						{
							OFFSET 4.392200 8.824978 0.174984
							CHANNELS 3 Zrotation Yrotation Xrotation
							JOINT LeftArm
							{
								OFFSET 8.771219 -2.981674 -0.026999
								CHANNELS 3 Zrotation Yrotation Xrotation
								JOINT LeftForeArm
								{
									OFFSET 8.512804 0.000000 -0.000000
									CHANNELS 3 Zrotation Yrotation Xrotation
									JOINT LeftHand
									{
										OFFSET 18.484802 0.000000 -0.000000
										CHANNELS 3 Zrotation Yrotation Xrotation
										End Site
										{
											OFFSET 0.000000 0.000000 0.000000
										}
									}
								}
							}
						}
					}
					JOINT RightShoulder_virtual
					{
						OFFSET 0.000000 0.000000 0.000000
						CHANNELS 3 Zrotation Yrotation Xrotation
						JOINT RightShoulder
						{
							OFFSET -4.392200 8.824993 0.141379
							CHANNELS 3 Zrotation Yrotation Xrotation
							JOINT RightArm
							{
								OFFSET -8.771282 -2.981682 -0.094208
								CHANNELS 3 Zrotation Yrotation Xrotation
								JOINT RightForeArm
								{
									OFFSET -8.494598 0.000000 0.000000
									CHANNELS 3 Zrotation Yrotation Xrotation
									JOINT RightHand
									{
										OFFSET -18.483803 0.000000 0.000001
										CHANNELS 3 Zrotation Yrotation Xrotation
										End Site
										{
											OFFSET 0.000000 0.000000 0.000000
										}
									}
								}
							}
						}
					}
				}
			}
		}
	}
}
MOTION
Frames: 10
Frame Time: 0.033333
6.215740 36.385159 6.427466 -179.545811 14.607893 -179.453207 -1.840899 -2.162264 10.995015 2.417323 4.477033 -25.521384 14.462494 5.364084 33.369326 -8.689795 0.684930 12.049427 0.000000 0.000000 0.000000 2.631654 0.649625 8.434023 6.586775 2.323362 -15.733780 -6.198802 3.327776 15.357878 -1.532297 3.420292 19.150720 0.000000 0.000000 0.000000 2.386685 0.462429 1.781049 2.030663 2.027508 -4.323617 1.162773 -3.399406 7.506774 -0.070099 -0.058695 0.112573 0.916944 -1.646767 9.564382 1.568295 -5.280235 4.417167 0.000000 0.000000 0.000000 2.134891 -0.785757 6.242712 -12.136835 -9.789605 3.611770 -44.456639 11.486963 22.443373 -4.438263 -44.754712 5.299699 0.000000 0.000000 0.000000 -1.287336 0.115862 5.952668 22.347716 3.905789 1.297533 39.096945 -10.218612 14.306329 -1.610656 46.898510 -5.144816 0.000000 0.000000 0.000000 
5.847879 36.419010 6.439806 -179.486839 14.302371 -179.346984 -1.925291 -2.042411 11.699883 1.580172 3.930701 -25.743186 14.671014 5.490357 32.778805 -8.315742 0.952702 10.946656 0.000000 0.000000 0.000000 2.738382 0.503323 9.005299 5.711745 2.889805 -16.873041 -6.150394 3.842217 15.626023 -1.340494 3.504245 19.764360 0.000000 0.000000 0.000000 2.489568 0.413630 2.408296 2.288958 2.107094 -4.224265 1.165045 -3.418664 7.637045 -0.067187 -0.089214 0.085653 0.890291 -1.533174 9.624214 1.742033 -4.832393 3.124533 0.000000 0.000000 0.000000 2.089489 -0.832567 6.405416 -12.173473 -10.071235 3.665790 -44.613993 11.608375 22.602061 -4.501596 -44.763830 5.682085 0.000000 0.000000 0.000000 -1.390900 0.098329 6.077109 22.931400 4.499757 1.455607 39.537438 -9.062068 13.914356 -1.572577 45.456248 -4.950098 0.000000 0.000000 0.000000 
5.443307 36.464924 6.507701 -179.474203 14.338754 -179.468562 -1.900294 -2.186819 12.191529 0.645259 3.786871 -26.208783 14.875802 5.950790 32.171957 -8.071906 1.302649 10.908761 0.000000 0.000000 0.000000 2.857457 0.548766 9.731082 4.707499 3.548453 -18.035705 -6.190444 4.165951 15.948835 -1.062180 3.610530 20.644382 0.000000 0.000000 0.000000 2.489360 0.511533 3.460679 2.513523 2.226686 -4.080646 1.147802 -3.389177 7.765817 -0.076918 -0.071464 0.037651 0.831105 -1.610350 9.834803 1.883063 -4.403335 1.754629 0.000000 0.000000 0.000000 2.166329 -0.864860 6.618348 -12.194183 -10.520592 3.921983 -44.559570 11.476888 22.759258 -4.580690 -44.780288 6.139948 0.000000 0.000000 0.000000 -1.350145 0.072723 6.197939 23.459651 5.143666 1.870812 40.208180 -7.692428 13.594878 -2.227917 44.106705 -5.462688 0.000000 0.000000 0.000000 
5.029774 36.512794 6.667372 -179.474190 14.339019 -179.598636 -1.912249 -2.278487 12.703359 -0.402761 4.032403 -26.793551 15.094407 6.298900 31.323630 -7.932108 1.682402 10.941263 0.000000 0.000000 0.000000 3.006248 0.717457 10.586733 3.629355 4.137220 -19.469488 -6.287720 4.246463 16.131402 -0.730780 3.788398 21.672339 0.000000 0.000000 0.000000 2.461395 0.631460 4.753106 2.716385 2.381784 -3.916897 1.088302 -3.306704 7.925217 -0.103114 0.009300 0.044882 0.779866 -1.750097 9.846862 2.058400 -3.926092 0.153627 0.000000 0.000000 0.000000 2.092346 -0.836576 6.743290 -12.103010 -11.151781 4.137624 -44.108416 10.751755 22.804509 -4.423461 -44.594582 6.419352 0.000000 0.000000 0.000000 -1.408016 0.086974 6.349430 23.718824 5.780773 2.156781 41.130409 -6.387308 13.369879 -2.446844 42.839629 -5.604103 0.000000 0.000000 0.000000 
4.611750 36.539795 6.902574 -179.450953 14.093073 -179.690830 -1.956214 -2.247757 13.373724 -1.679293 4.776695 -27.505807 15.285931 6.494674 30.316105 -7.843776 2.098021 11.105596 0.000000 0.000000 0.000000 3.141033 0.923878 11.547936 2.578429 4.470530 -21.275877 -6.422066 4.121786 16.165017 -0.353827 4.094649 22.712379 0.000000 0.000000 0.000000 2.379694 0.610589 6.236141 2.906592 2.416687 -3.751244 1.030453 -3.426066 8.080475 -0.108251 0.063029 0.031858 0.796548 -1.557266 9.865626 2.261292 -3.428982 -1.588744 0.000000 0.000000 0.000000 2.071624 -0.748527 6.859445 -11.899526 -11.727370 4.449711 -43.540871 9.430082 22.654829 -4.269699 -44.203174 6.730429 0.000000 0.000000 0.000000 -1.506090 0.244814 6.514517 23.848193 6.505731 2.450599 42.072907 -5.015777 13.288656 -2.757922 41.849662 -5.856723 0.000000 0.000000 0.000000 
4.183809 36.529194 7.194428 -179.447853 13.794551 -179.809894 -1.991383 -2.399763 14.045703 -3.065986 5.554080 -28.507695 15.431665 6.533358 29.011430 -7.811504 2.571690 11.265676 0.000000 0.000000 0.000000 3.216900 0.928963 12.624993 1.668095 4.363801 -23.329380 -6.559829 3.775697 16.206026 0.084757 4.597165 23.793758 0.000000 0.000000 0.000000 2.274131 0.764091 7.829794 3.091844 2.683823 -3.551608 1.043356 -3.342007 8.223814 -0.039113 -0.053672 0.007342 0.692286 -1.833090 9.921172 2.279968 -3.026741 -3.433356 0.000000 0.000000 0.000000 2.040962 -0.900438 7.070916 -11.602496 -12.542864 4.569861 -43.024014 7.469567 22.006118 -4.233069 -43.753902 7.173023 0.000000 0.000000 0.000000 -1.576837 0.169454 6.655802 23.797667 7.052293 2.845305 42.839182 -3.839519 13.203191 -3.083216 41.120840 -6.155801 0.000000 0.000000 0.000000 
3.734673 36.468773 7.510196 -179.391872 13.959686 -179.859139 -1.913061 -2.271287 14.726438 -4.372658 5.443765 -29.523349 15.782651 6.845300 27.918861 -7.552421 3.264850 11.454837 0.000000 0.000000 0.000000 3.223744 0.624781 13.550987 1.059055 3.689968 -25.584459 -6.674848 3.235787 16.478204 0.554213 5.339701 25.013382 0.000000 0.000000 0.000000 2.187792 0.538432 9.345063 3.273883 3.066537 -3.305156 0.989230 -3.278404 8.399735 -0.055538 -0.006596 -0.002055 0.707476 -1.727133 9.989590 2.201479 -2.647161 -5.261276 0.000000 0.000000 0.000000 1.952392 -0.874089 7.278538 -11.267856 -13.166199 4.776841 -42.639252 5.143071 21.163556 -4.056263 -43.290876 7.474291 0.000000 0.000000 0.000000 -1.612601 0.186279 6.797841 23.583880 7.643321 2.978473 43.298919 -2.897790 13.324161 -3.297387 40.567570 -6.380247 0.000000 0.000000 0.000000 
3.240718 36.359238 7.814022 -179.258547 14.125996 -179.759009 -1.468516 -2.321083 15.312639 -5.921169 4.637761 -30.452651 16.315020 7.317737 26.896493 -7.136118 4.134646 11.631773 0.000000 0.000000 0.000000 3.135365 -0.154638 14.198304 0.880989 2.233660 -28.112794 -6.794618 2.470649 16.832236 0.898227 6.218849 26.144875 0.000000 0.000000 0.000000 2.161329 0.097613 10.532795 3.499444 3.542122 -3.061996 0.896962 -3.261337 8.610626 -0.141099 -0.040977 0.003705 0.775818 -1.603209 10.189219 2.183138 -2.096168 -6.832225 0.000000 0.000000 0.000000 1.961320 -0.815368 7.507011 -10.887731 -13.523144 4.974481 -42.737122 2.939053 20.303968 -3.925346 -43.222991 7.828822 0.000000 0.000000 0.000000 -1.682049 0.436488 7.041314 23.337660 8.296683 3.360757 43.530008 -2.295053 13.598680 -3.541297 40.147739 -6.780243 0.000000 0.000000 0.000000 
2.723246 36.224648 8.059815 -179.177719 14.329274 -179.617883 -1.279390 -2.808170 15.663190 -7.563517 4.700781 -31.143142 17.098549 8.188793 26.231412 -7.108161 5.003084 11.238658 0.000000 0.000000 0.000000 2.917936 -0.974783 14.825154 1.258451 -0.223756 -30.658312 -6.992569 1.443548 17.146673 0.908158 7.097382 27.451990 0.000000 0.000000 0.000000 2.094477 -0.450631 11.419557 3.780675 4.123197 -2.907209 0.833681 -3.280421 8.892531 -0.123273 -0.044308 -0.002854 0.678138 -1.629450 10.460226 1.838400 -1.824593 -8.148829 0.000000 0.000000 0.000000 1.885113 -0.822879 7.837551 -10.677480 -13.592414 5.161842 -43.032709 1.243236 19.835016 -3.906742 -43.722951 8.309980 0.000000 0.000000 0.000000 -1.781515 0.363817 7.382303 23.181512 8.964624 3.632429 43.632789 -1.955100 13.969705 -3.686223 39.692384 -6.828137 0.000000 0.000000 0.000000 
2.205573 36.090435 8.225028 -179.055349 14.723414 -179.793870 -1.033702 -2.950718 15.997782 -9.339672 5.622911 -31.410220 17.635970 9.156532 25.989520 -7.271112 5.469669 9.900240 0.000000 0.000000 0.000000 2.636752 -1.470320 15.379059 2.263259 -3.665631 -32.884260 -7.261199 0.144739 17.781959 0.431637 7.866533 29.106578 0.000000 0.000000 0.000000 2.145554 -0.731996 12.299379 4.177480 4.719156 -2.738425 0.752961 -3.353872 9.312224 -0.115051 -0.057810 -0.024242 0.602677 -1.627929 10.797141 1.425186 -1.578441 -9.092726 0.000000 0.000000 0.000000 1.886311 -0.788831 8.195832 -10.368005 -13.427238 5.422435 -43.831697 0.325717 19.694374 -4.051653 -44.906264 8.961461 0.000000 0.000000 0.000000 -1.843889 0.379765 7.756129 23.226985 9.604220 4.010284 43.641217 -1.775307 14.365457 -3.910562 39.013911 -7.113472 0.000000 0.000000 0.000000 
